{"title":"F.A.L.T.U. 2011 CAM DVD *TEAM DAYN* Exclusive *","uid":6287638,"size":693970944,"categoryP":"video","categoryS":"other","magnet":"?xt=urn:btih:beafc9d96268ebb5f0399a29423169075a34229c&amp;dn=F.A.L.T.U.+2011+CAM+DVD+%2ATEAM+DAYN%2A+Exclusive+%2A+&amp;tr=udp%3A%2F%2Ftracker.openbittorrent.com%3A80&amp;tr=udp%3A%2F%2Fopen.demonii.com%3A1337&amp;tr=udp%3A%2F%2Ftracker.coppersurfer.tk%3A6969&amp;tr=udp%3A%2F%2Fexodus.desync.com%3A6969","seeders":0,"leechers":0,"uploader":"arihantkatariya","files":7,"time":1301672046,"description":"Format : MPEG-PS File size : 662 MiB Duration : 1h 55mn Overall bit rate : 799 Kbps Video ID : 224 (0xE0) Format : MPEG Video Format version : Version 2 Format profile : Main@Main Format settings, BVOP : Yes Format settings, Matrix : Default Format settings, GOP : M=3, N=13 Duration : 1h 55mn Bit rate mode : Variable Bit rate : 655 Kbps Nominal bit rate : 9 672 Kbps Width : 352 pixels Height : 288 pixels Display aspect ratio : 4:3 Frame rate : 25.000 fps Standard : PAL Color space : YUV Chroma subsampling : 4:2:0 Bit depth : 8 bits Scan type : Progressive Compression mode : Lossy Bits/(Pixel*Frame) : 0.259 Stream size : 542 MiB (82%) Audio ID : 192 (0xC0) Format : MPEG Audio Format version : Version 1 Format profile : Layer 2 Duration : 1h 55mn Bit rate mode : Constant Bit rate : 128 Kbps Channel(s) : 2 channels Sampling rate : 48.0 KHz Compression mode : Lossy Stream size : 106 MiB (16%) ","torrent":{"xt":"urn:btih:beafc9d96268ebb5f0399a29423169075a34229c","amp;dn":"F.A.L.T.U.+2011+CAM+DVD+%2ATEAM+DAYN%2A+Exclusive+%2A+","amp;tr":["udp%3A%2F%2Ftracker.openbittorrent.com%3A80","udp%3A%2F%2Fopen.demonii.com%3A1337","udp%3A%2F%2Ftracker.coppersurfer.tk%3A6969","udp%3A%2F%2Fexodus.desync.com%3A6969"],"infoHash":"beafc9d96268ebb5f0399a29423169075a34229c","infoHashBuffer":{"type":"Buffer","data":[190,175,201,217,98,104,235,181,240,57,154,41,66,49,105,7,90,52,34,156]},"announce":[],"urlList":[]}}